<?xml version="1.0" standalone="no"?>
<!DOCTYPE svg PUBLIC "-//W3C//DTD SVG 20010904//EN" "http://www.w3.org/TR/2001/REC-SVG-20010904/DTD/svg10.dtd">
<svg version="1.0" xmlns="http://www.w3.org/2000/svg"  xmlns:xlink="http://www.w3.org/1999/xlink" width="5in" height="5in" viewBox="-2.5 -2.5 5 5">
<defs>
<g id="hpgl2svg">
    <path d="

M 0.754974,0.150786
l 0.008377,-0.052356
l 0.008377,0.001047
l 0.008377,0.000000
l 0.008377,-0.001047
l 0.009424,-0.001047
l 0.008377,-0.001047
l 0.008377,-0.002094
l 0.008377,-0.002094
l 0.009424,-0.002094
l 0.008377,-0.003141
l 0.008377,-0.003141
l 0.009424,-0.003141
l 0.008377,-0.003141
l 0.008377,-0.004188
l 0.009424,-0.003141
l 0.008377,-0.004188
l 0.008377,-0.004188
l 0.009424,-0.005236
l 0.008377,-0.004188
l 0.008377,-0.005236
l 0.008377,-0.005236
l 0.000000,-0.082723
l -0.008377,-0.005236
l -0.008377,-0.005236
l -0.008377,-0.004188
l -0.009424,-0.005236
l -0.008377,-0.004188
l -0.008377,-0.004188
l -0.009424,-0.004188
l -0.008377,-0.003141
l -0.008377,-0.003141
l -0.009424,-0.003141
l -0.008377,-0.003141
l -0.008377,-0.003141
l -0.009424,-0.002094
l -0.008377,-0.002094
l -0.008377,-0.002094
l -0.008377,-0.001047
l -0.009424,-0.001047
l -0.008377,-0.001047
l -0.008377,0.000000
l -0.008377,0.000000
l -0.008377,-0.051309
l 0.000000,0.000000
l -0.011518,-0.051309
l 0.007330,-0.002094
l 0.008377,-0.003141
l 0.007330,-0.004188
l 0.007330,-0.004188
l 0.007330,-0.005236
l 0.007330,-0.005236
l 0.007330,-0.005236
l 0.007330,-0.005236
l 0.007330,-0.005236
l 0.006283,-0.006283
l 0.007330,-0.006283
l 0.006283,-0.006283
l 0.006283,-0.007330
l 0.007330,-0.006283
l 0.006283,-0.007330
l 0.006283,-0.007330
l 0.006283,-0.008377
l 0.006283,-0.007330
l 0.006283,-0.008377
l 0.005236,-0.007330
l -0.031414,-0.076440
l -0.009424,-0.002094
l -0.010471,-0.001047
l -0.009424,-0.001047
l -0.010471,-0.001047
l -0.009424,0.000000
l -0.009424,-0.001047
l -0.009424,0.000000
l -0.009424,0.000000
l -0.009424,0.000000
l -0.009424,0.000000
l -0.009424,0.001047
l -0.008377,0.001047
l -0.009424,0.001047
l -0.008377,0.001047
l -0.009424,0.002094
l -0.008377,0.001047
l -0.008377,0.003141
l -0.008377,0.002094
l -0.007330,0.003141
l -0.007330,0.004188
l -0.028272,-0.045026
l 0.000000,0.000000
l -0.030366,-0.042932
l 0.006283,-0.005236
l 0.006283,-0.006283
l 0.005236,-0.006283
l 0.005236,-0.006283
l 0.005236,-0.007330
l 0.005236,-0.007330
l 0.004188,-0.008377
l 0.004188,-0.007330
l 0.004188,-0.008377
l 0.004188,-0.008377
l 0.004188,-0.008377
l 0.004188,-0.008377
l 0.003141,-0.008377
l 0.003141,-0.009424
l 0.003141,-0.008377
l 0.003141,-0.009424
l 0.003141,-0.009424
l 0.003141,-0.009424
l 0.002094,-0.010471
l 0.002094,-0.009424
l -0.057592,-0.058639
l -0.010471,0.003141
l -0.009424,0.002094
l -0.009424,0.003141
l -0.009424,0.002094
l -0.009424,0.003141
l -0.009424,0.004188
l -0.008377,0.003141
l -0.008377,0.003141
l -0.009424,0.004188
l -0.008377,0.003141
l -0.008377,0.004188
l -0.007330,0.004188
l -0.008377,0.005236
l -0.007330,0.004188
l -0.007330,0.005236
l -0.007330,0.005236
l -0.006283,0.005236
l -0.007330,0.005236
l -0.006283,0.005236
l -0.005236,0.007330
l -0.041885,-0.031414
l 0.000000,0.000000
l -0.045026,-0.027225
l 0.004188,-0.007330
l 0.003141,-0.008377
l 0.002094,-0.007330
l 0.002094,-0.008377
l 0.002094,-0.009424
l 0.002094,-0.008377
l 0.001047,-0.008377
l 0.001047,-0.009424
l 0.001047,-0.009424
l 0.001047,-0.008377
l 0.000000,-0.009424
l 0.000000,-0.009424
l 0.000000,-0.009424
l 0.000000,-0.009424
l -0.001047,-0.009424
l 0.000000,-0.010471
l -0.001047,-0.009424
l -0.001047,-0.010471
l -0.002094,-0.009424
l -0.001047,-0.010471
l -0.076440,-0.031414
l -0.008377,0.006283
l -0.007330,0.006283
l -0.008377,0.006283
l -0.007330,0.006283
l -0.007330,0.006283
l -0.007330,0.006283
l -0.006283,0.006283
l -0.007330,0.007330
l -0.006283,0.006283
l -0.006283,0.007330
l -0.006283,0.006283
l -0.005236,0.007330
l -0.006283,0.007330
l -0.005236,0.007330
l -0.004188,0.007330
l -0.005236,0.007330
l -0.004188,0.007330
l -0.004188,0.007330
l -0.003141,0.007330
l -0.002094,0.008377
l -0.051309,-0.011518
l 0.000000,0.000000
l -0.052356,-0.008377
l 0.001047,-0.008377
l 0.000000,-0.009424
l -0.001047,-0.008377
l -0.001047,-0.008377
l -0.001047,-0.008377
l -0.002094,-0.008377
l -0.002094,-0.009424
l -0.002094,-0.008377
l -0.003141,-0.008377
l -0.003141,-0.009424
l -0.003141,-0.008377
l -0.003141,-0.008377
l -0.004188,-0.009424
l -0.003141,-0.008377
l -0.004188,-0.008377
l -0.004188,-0.009424
l -0.005236,-0.008377
l -0.004188,-0.008377
l -0.005236,-0.008377
l -0.005236,-0.009424
l -0.082723,0.000000
l -0.005236,0.009424
l -0.005236,0.008377
l -0.004188,0.008377
l -0.005236,0.008377
l -0.004188,0.009424
l -0.004188,0.008377
l -0.004188,0.008377
l -0.003141,0.009424
l -0.003141,0.008377
l -0.003141,0.008377
l -0.003141,0.009424
l -0.003141,0.008377
l -0.002094,0.008377
l -0.002094,0.009424
l -0.002094,0.008377
l -0.001047,0.008377
l -0.001047,0.008377
l -0.001047,0.008377
l 0.000000,0.009424
l 0.000000,0.008377
l -0.051309,0.008377
l 0.000000,0.000000
l -0.051309,0.011518
l -0.002094,-0.008377
l -0.003141,-0.007330
l -0.004188,-0.007330
l -0.004188,-0.007330
l -0.005236,-0.007330
l -0.005236,-0.007330
l -0.005236,-0.007330
l -0.005236,-0.007330
l -0.005236,-0.007330
l -0.006283,-0.006283
l -0.006283,-0.007330
l -0.006283,-0.006283
l -0.007330,-0.007330
l -0.006283,-0.006283
l -0.007330,-0.006283
l -0.007330,-0.006283
l -0.008377,-0.006283
l -0.007330,-0.006283
l -0.008377,-0.006283
l -0.007330,-0.006283
l -0.076440,0.031414
l -0.002094,0.010471
l -0.001047,0.009424
l -0.001047,0.010471
l -0.001047,0.009424
l 0.000000,0.010471
l -0.001047,0.009424
l 0.000000,0.009424
l 0.000000,0.009424
l 0.000000,0.009424
l 0.000000,0.009424
l 0.001047,0.008377
l 0.001047,0.009424
l 0.001047,0.009424
l 0.001047,0.008377
l 0.002094,0.008377
l 0.001047,0.009424
l 0.003141,0.008377
l 0.002094,0.007330
l 0.003141,0.008377
l 0.004188,0.007330
l -0.045026,0.027225
l 0.000000,0.000000
l -0.042932,0.031414
l -0.005236,-0.007330
l -0.006283,-0.005236
l -0.006283,-0.005236
l -0.006283,-0.005236
l -0.007330,-0.005236
l -0.007330,-0.005236
l -0.008377,-0.004188
l -0.007330,-0.005236
l -0.008377,-0.004188
l -0.008377,-0.004188
l -0.008377,-0.003141
l -0.008377,-0.004188
l -0.008377,-0.003141
l -0.009424,-0.003141
l -0.008377,-0.004188
l -0.009424,-0.003141
l -0.009424,-0.002094
l -0.009424,-0.003141
l -0.010471,-0.002094
l -0.009424,-0.003141
l -0.058639,0.058639
l 0.003141,0.009424
l 0.002094,0.010471
l 0.003141,0.009424
l 0.002094,0.009424
l 0.003141,0.009424
l 0.004188,0.008377
l 0.003141,0.009424
l 0.003141,0.008377
l 0.004188,0.008377
l 0.003141,0.008377
l 0.004188,0.008377
l 0.004188,0.008377
l 0.005236,0.007330
l 0.004188,0.008377
l 0.005236,0.007330
l 0.005236,0.007330
l 0.005236,0.006283
l 0.005236,0.006283
l 0.005236,0.006283
l 0.007330,0.005236
l -0.031414,0.042932
l 0.000000,0.000000
l -0.027225,0.045026
l -0.007330,-0.004188
l -0.008377,-0.003141
l -0.007330,-0.002094
l -0.008377,-0.003141
l -0.009424,-0.001047
l -0.008377,-0.002094
l -0.008377,-0.001047
l -0.009424,-0.001047
l -0.009424,-0.001047
l -0.008377,-0.001047
l -0.009424,0.000000
l -0.009424,0.000000
l -0.009424,0.000000
l -0.009424,0.000000
l -0.009424,0.001047
l -0.010471,0.000000
l -0.009424,0.001047
l -0.010471,0.001047
l -0.009424,0.001047
l -0.010471,0.002094
l -0.031414,0.076440
l 0.006283,0.007330
l 0.006283,0.008377
l 0.006283,0.007330
l 0.006283,0.008377
l 0.006283,0.007330
l 0.006283,0.007330
l 0.006283,0.006283
l 0.007330,0.007330
l 0.006283,0.006283
l 0.007330,0.006283
l 0.006283,0.006283
l 0.007330,0.005236
l 0.007330,0.005236
l 0.007330,0.005236
l 0.007330,0.005236
l 0.007330,0.005236
l 0.007330,0.004188
l 0.007330,0.004188
l 0.007330,0.003141
l 0.008377,0.002094
l -0.011518,0.051309
l 0.000000,0.000000
l -0.008377,0.051309
l -0.008377,0.000000
l -0.009424,0.000000
l -0.008377,0.001047
l -0.008377,0.001047
l -0.008377,0.001047
l -0.008377,0.002094
l -0.009424,0.002094
l -0.008377,0.002094
l -0.008377,0.003141
l -0.009424,0.003141
l -0.008377,0.003141
l -0.008377,0.003141
l -0.009424,0.003141
l -0.008377,0.004188
l -0.008377,0.004188
l -0.009424,0.004188
l -0.008377,0.005236
l -0.008377,0.004188
l -0.008377,0.005236
l -0.009424,0.005236
l 0.000000,0.082723
l 0.009424,0.005236
l 0.008377,0.005236
l 0.008377,0.004188
l 0.008377,0.005236
l 0.009424,0.004188
l 0.008377,0.004188
l 0.008377,0.003141
l 0.009424,0.004188
l 0.008377,0.003141
l 0.008377,0.003141
l 0.009424,0.003141
l 0.008377,0.003141
l 0.008377,0.002094
l 0.009424,0.002094
l 0.008377,0.002094
l 0.008377,0.001047
l 0.008377,0.001047
l 0.008377,0.001047
l 0.009424,0.000000
l 0.008377,-0.001047
l 0.008377,0.052356
l 0.000000,0.000000
l 0.011518,0.051309
l -0.008377,0.002094
l -0.007330,0.003141
l -0.007330,0.004188
l -0.007330,0.004188
l -0.007330,0.005236
l -0.007330,0.004188
l -0.007330,0.005236
l -0.007330,0.006283
l -0.007330,0.005236
l -0.006283,0.006283
l -0.007330,0.006283
l -0.006283,0.006283
l -0.007330,0.007330
l -0.006283,0.006283
l -0.006283,0.007330
l -0.006283,0.007330
l -0.006283,0.007330
l -0.006283,0.008377
l -0.006283,0.007330
l -0.006283,0.008377
l 0.031414,0.076440
l 0.010471,0.001047
l 0.009424,0.002094
l 0.010471,0.001047
l 0.009424,0.001047
l 0.010471,0.000000
l 0.009424,0.001047
l 0.009424,0.000000
l 0.009424,0.000000
l 0.009424,0.000000
l 0.009424,0.000000
l 0.008377,-0.001047
l 0.009424,-0.001047
l 0.009424,-0.001047
l 0.008377,-0.001047
l 0.008377,-0.002094
l 0.009424,-0.002094
l 0.008377,-0.002094
l 0.007330,-0.002094
l 0.008377,-0.003141
l 0.007330,-0.004188
l 0.027225,0.045026
l 0.000000,0.000000
l 0.031414,0.041885
l -0.007330,0.005236
l -0.005236,0.006283
l -0.005236,0.007330
l -0.005236,0.006283
l -0.005236,0.007330
l -0.005236,0.007330
l -0.004188,0.007330
l -0.005236,0.008377
l -0.004188,0.007330
l -0.004188,0.008377
l -0.003141,0.008377
l -0.004188,0.009424
l -0.003141,0.008377
l -0.003141,0.008377
l -0.004188,0.009424
l -0.003141,0.009424
l -0.002094,0.009424
l -0.003141,0.009424
l -0.002094,0.009424
l -0.003141,0.010471
l 0.058639,0.057592
l 0.009424,-0.002094
l 0.010471,-0.002094
l 0.009424,-0.003141
l 0.009424,-0.003141
l 0.009424,-0.003141
l 0.008377,-0.003141
l 0.009424,-0.003141
l 0.008377,-0.003141
l 0.008377,-0.004188
l 0.008377,-0.004188
l 0.008377,-0.004188
l 0.008377,-0.004188
l 0.007330,-0.004188
l 0.008377,-0.004188
l 0.007330,-0.005236
l 0.007330,-0.005236
l 0.006283,-0.005236
l 0.006283,-0.005236
l 0.006283,-0.006283
l 0.005236,-0.006283
l 0.042932,0.030366
l 0.000000,0.000000
l 0.045026,0.028272
l -0.004188,0.007330
l -0.003141,0.007330
l -0.002094,0.008377
l -0.003141,0.008377
l -0.001047,0.008377
l -0.002094,0.009424
l -0.001047,0.008377
l -0.001047,0.009424
l -0.001047,0.008377
l -0.001047,0.009424
l 0.000000,0.009424
l 0.000000,0.009424
l 0.000000,0.009424
l 0.000000,0.009424
l 0.001047,0.009424
l 0.000000,0.009424
l 0.001047,0.010471
l 0.001047,0.009424
l 0.001047,0.010471
l 0.002094,0.009424
l 0.076440,0.031414
l 0.007330,-0.005236
l 0.008377,-0.006283
l 0.007330,-0.006283
l 0.008377,-0.006283
l 0.007330,-0.006283
l 0.007330,-0.006283
l 0.006283,-0.007330
l 0.007330,-0.006283
l 0.006283,-0.006283
l 0.006283,-0.007330
l 0.006283,-0.006283
l 0.005236,-0.007330
l 0.005236,-0.007330
l 0.005236,-0.007330
l 0.005236,-0.007330
l 0.005236,-0.007330
l 0.004188,-0.007330
l 0.004188,-0.007330
l 0.003141,-0.008377
l 0.002094,-0.007330
l 0.051309,0.011518
l 0.000000,0.000000
l 0.051309,0.008377
l 0.000000,0.008377
l 0.000000,0.008377
l 0.001047,0.008377
l 0.001047,0.009424
l 0.001047,0.008377
l 0.002094,0.008377
l 0.002094,0.008377
l 0.002094,0.009424
l 0.003141,0.008377
l 0.003141,0.008377
l 0.003141,0.009424
l 0.003141,0.008377
l 0.003141,0.008377
l 0.004188,0.009424
l 0.004188,0.008377
l 0.004188,0.008377
l 0.005236,0.009424
l 0.004188,0.008377
l 0.005236,0.008377
l 0.005236,0.008377
l 0.082723,0.000000
l 0.005236,-0.008377
l 0.005236,-0.008377
l 0.004188,-0.008377
l 0.005236,-0.009424
l 0.004188,-0.008377
l 0.004188,-0.008377
l 0.003141,-0.009424
l 0.004188,-0.008377
l 0.003141,-0.008377
l 0.003141,-0.009424
l 0.003141,-0.008377
l 0.003141,-0.008377
l 0.002094,-0.009424
l 0.002094,-0.008377
l 0.002094,-0.008377
l 0.001047,-0.008377
l 0.001047,-0.009424
l 0.001047,-0.008377
l 0.000000,-0.008377
l -0.001047,-0.008377
l 0.052356,-0.008377
l 0.000000,0.000000
l 0.051309,-0.011518
l 0.002094,0.007330
l 0.003141,0.008377
l 0.004188,0.007330
l 0.004188,0.007330
l 0.005236,0.007330
l 0.004188,0.007330
l 0.005236,0.007330
l 0.006283,0.007330
l 0.005236,0.007330
l 0.006283,0.006283
l 0.006283,0.007330
l 0.006283,0.006283
l 0.007330,0.006283
l 0.006283,0.007330
l 0.007330,0.006283
l 0.007330,0.006283
l 0.007330,0.006283
l 0.008377,0.006283
l 0.007330,0.006283
l 0.008377,0.005236
l 0.076440,-0.031414
l 0.001047,-0.009424
l 0.002094,-0.010471
l 0.001047,-0.009424
l 0.001047,-0.010471
l 0.000000,-0.009424
l 0.001047,-0.009424
l 0.000000,-0.009424
l 0.000000,-0.009424
l 0.000000,-0.009424
l 0.000000,-0.009424
l -0.001047,-0.009424
l -0.001047,-0.008377
l -0.001047,-0.009424
l -0.001047,-0.008377
l -0.002094,-0.009424
l -0.002094,-0.008377
l -0.002094,-0.008377
l -0.002094,-0.008377
l -0.003141,-0.007330
l -0.004188,-0.007330
l 0.045026,-0.028272
l 0.000000,0.000000
l 0.041885,-0.030366
l 0.005236,0.006283
l 0.006283,0.006283
l 0.007330,0.005236
l 0.006283,0.005236
l 0.007330,0.005236
l 0.007330,0.005236
l 0.007330,0.004188
l 0.008377,0.004188
l 0.007330,0.004188
l 0.008377,0.004188
l 0.008377,0.004188
l 0.009424,0.004188
l 0.008377,0.003141
l 0.008377,0.003141
l 0.009424,0.003141
l 0.009424,0.003141
l 0.009424,0.003141
l 0.009424,0.003141
l 0.009424,0.002094
l 0.010471,0.002094
l 0.057592,-0.057592
l -0.002094,-0.010471
l -0.002094,-0.009424
l -0.003141,-0.009424
l -0.003141,-0.009424
l -0.003141,-0.009424
l -0.003141,-0.009424
l -0.003141,-0.008377
l -0.003141,-0.008377
l -0.004188,-0.009424
l -0.004188,-0.008377
l -0.004188,-0.008377
l -0.004188,-0.007330
l -0.004188,-0.008377
l -0.004188,-0.007330
l -0.005236,-0.007330
l -0.005236,-0.007330
l -0.005236,-0.006283
l -0.005236,-0.007330
l -0.006283,-0.006283
l -0.006283,-0.005236
l 0.030366,-0.041885
l 0.000000,0.000000
l 0.028272,-0.045026
l 0.007330,0.004188
l 0.007330,0.003141
l 0.008377,0.002094
l 0.008377,0.002094
l 0.008377,0.002094
l 0.009424,0.002094
l 0.008377,0.001047
l 0.009424,0.001047
l 0.008377,0.001047
l 0.009424,0.001047
l 0.009424,0.000000
l 0.009424,0.000000
l 0.009424,0.000000
l 0.009424,0.000000
l 0.009424,-0.001047
l 0.009424,0.000000
l 0.010471,-0.001047
l 0.009424,-0.001047
l 0.010471,-0.002094
l 0.009424,-0.001047
l 0.031414,-0.076440
l -0.005236,-0.008377
l -0.006283,-0.007330
l -0.006283,-0.008377
l -0.006283,-0.007330
l -0.006283,-0.007330
l -0.006283,-0.007330
l -0.007330,-0.006283
l -0.006283,-0.007330
l -0.006283,-0.006283
l -0.007330,-0.006283
l -0.006283,-0.006283
l -0.007330,-0.005236
l -0.007330,-0.006283
l -0.007330,-0.005236
l -0.007330,-0.004188
l -0.007330,-0.005236
l -0.007330,-0.004188
l -0.007330,-0.004188
l -0.008377,-0.003141
l -0.007330,-0.002094
l 0.011518,-0.051309
" stroke="red" stroke-width="0.01" fill="none"/>
<circle cx="0" cy="0" r=".15" stroke-width="0.01" stroke="red" fill="none"/>
<!--<text text-anchor="middle" y="-.4" font-size="0.1" font-family="courier" fill="blue">2:1 Output</text>-->
</g>
</defs>
<line x1="-.126" y1="0" x2=".126" y2="0" stroke-width="0.02" fill="black" stroke="blue" />
<line y1="-.126" x1="0" y2=".126" x2="0" stroke-width="0.02" fill="black" stroke="blue" />
<use xlink:href="#hpgl2svg" x="0" y="0"/>
</svg>
