<?xml version="1.0" standalone="no"?>
<!DOCTYPE svg PUBLIC "-//W3C//DTD SVG 20010904//EN" "http://www.w3.org/TR/2001/REC-SVG-20010904/DTD/svg10.dtd">
<svg version="1.0" xmlns="http://www.w3.org/2000/svg"  xmlns:xlink="http://www.w3.org/1999/xlink" width="5in" height="5in" viewBox="-2.5 -2.5 5 5">
<defs>
<g id="hpgl2svg">
    <path d="
M 0.862827429 0.172326857
l 0.009573714 -0.059835429
l 0.009573714 0.001196571
l 0.009573714 0
l 0.009573714 -0.001196571
l 0.010770286 -0.001196571
l 0.009573714 -0.001196571
l 0.009573714 -0.002393143
l 0.009573714 -0.002393143
l 0.010770286 -0.002393143
l 0.009573714 -0.003589714
l 0.009573714 -0.003589714
l 0.010770286 -0.003589714
l 0.009573714 -0.003589714
l 0.009573714 -0.004786286
l 0.010770286 -0.003589714
l 0.009573714 -0.004786286
l 0.009573714 -0.004786286
l 0.010770286 -0.005984
l 0.009573714 -0.004786286
l 0.009573714 -0.005984
l 0.009573714 -0.005984
l 0 -0.094540571
l -0.009573714 -0.005984
l -0.009573714 -0.005984
l -0.009573714 -0.004786286
l -0.010770286 -0.005984
l -0.009573714 -0.004786286
l -0.009573714 -0.004786286
l -0.010770286 -0.004786286
l -0.009573714 -0.003589714
l -0.009573714 -0.003589714
l -0.010770286 -0.003589714
l -0.009573714 -0.003589714
l -0.009573714 -0.003589714
l -0.010770286 -0.002393143
l -0.009573714 -0.002393143
l -0.009573714 -0.002393143
l -0.009573714 -0.001196571
l -0.010770286 -0.001196571
l -0.009573714 -0.001196571
l -0.009573714 0
l -0.009573714 0
l -0.009573714 -0.058638857
l 0 0
l -0.013163429 -0.058638857
l 0.008377143 -0.002393143
l 0.009573714 -0.003589714
l 0.008377143 -0.004786286
l 0.008377143 -0.004786286
l 0.008377143 -0.005984
l 0.008377143 -0.005984
l 0.008377143 -0.005984
l 0.008377143 -0.005984
l 0.008377143 -0.005984
l 0.007180571 -0.007180571
l 0.008377143 -0.007180571
l 0.007180571 -0.007180571
l 0.007180571 -0.008377143
l 0.008377143 -0.007180571
l 0.007180571 -0.008377143
l 0.007180571 -0.008377143
l 0.007180571 -0.009573714
l 0.007180571 -0.008377143
l 0.007180571 -0.009573714
l 0.005984 -0.008377143
l -0.035901714 -0.08736
l -0.010770286 -0.002393143
l -0.011966857 -0.001196571
l -0.010770286 -0.001196571
l -0.011966857 -0.001196571
l -0.010770286 0
l -0.010770286 -0.001196571
l -0.010770286 0
l -0.010770286 0
l -0.010770286 0
l -0.010770286 0
l -0.010770286 0.001196571
l -0.009573714 0.001196571
l -0.010770286 0.001196571
l -0.009573714 0.001196571
l -0.010770286 0.002393143
l -0.009573714 0.001196571
l -0.009573714 0.003589714
l -0.009573714 0.002393143
l -0.008377143 0.003589714
l -0.008377143 0.004786286
l -0.032310857 -0.051458286
l 0 0
l -0.034704 -0.049065143
l 0.007180571 -0.005984
l 0.007180571 -0.007180571
l 0.005984 -0.007180571
l 0.005984 -0.007180571
l 0.005984 -0.008377143
l 0.005984 -0.008377143
l 0.004786286 -0.009573714
l 0.004786286 -0.008377143
l 0.004786286 -0.009573714
l 0.004786286 -0.009573714
l 0.004786286 -0.009573714
l 0.004786286 -0.009573714
l 0.003589714 -0.009573714
l 0.003589714 -0.010770286
l 0.003589714 -0.009573714
l 0.003589714 -0.010770286
l 0.003589714 -0.010770286
l 0.003589714 -0.010770286
l 0.002393143 -0.011966857
l 0.002393143 -0.010770286
l -0.065819429 -0.067016
l -0.011966857 0.003589714
l -0.010770286 0.002393143
l -0.010770286 0.003589714
l -0.010770286 0.002393143
l -0.010770286 0.003589714
l -0.010770286 0.004786286
l -0.009573714 0.003589714
l -0.009573714 0.003589714
l -0.010770286 0.004786286
l -0.009573714 0.003589714
l -0.009573714 0.004786286
l -0.008377143 0.004786286
l -0.009573714 0.005984
l -0.008377143 0.004786286
l -0.008377143 0.005984
l -0.008377143 0.005984
l -0.007180571 0.005984
l -0.008377143 0.005984
l -0.007180571 0.005984
l -0.005984 0.008377143
l -0.047868571 -0.035901714
l 0 0
l -0.051458286 -0.031114286
l 0.004786286 -0.008377143
l 0.003589714 -0.009573714
l 0.002393143 -0.008377143
l 0.002393143 -0.009573714
l 0.002393143 -0.010770286
l 0.002393143 -0.009573714
l 0.001196571 -0.009573714
l 0.001196571 -0.010770286
l 0.001196571 -0.010770286
l 0.001196571 -0.009573714
l 0 -0.010770286
l 0 -0.010770286
l 0 -0.010770286
l 0 -0.010770286
l -0.001196571 -0.010770286
l 0 -0.011966857
l -0.001196571 -0.010770286
l -0.001196571 -0.011966857
l -0.002393143 -0.010770286
l -0.001196571 -0.011966857
l -0.08736 -0.035901714
l -0.009573714 0.007180571
l -0.008377143 0.007180571
l -0.009573714 0.007180571
l -0.008377143 0.007180571
l -0.008377143 0.007180571
l -0.008377143 0.007180571
l -0.007180571 0.007180571
l -0.008377143 0.008377143
l -0.007180571 0.007180571
l -0.007180571 0.008377143
l -0.007180571 0.007180571
l -0.005984 0.008377143
l -0.007180571 0.008377143
l -0.005984 0.008377143
l -0.004786286 0.008377143
l -0.005984 0.008377143
l -0.004786286 0.008377143
l -0.004786286 0.008377143
l -0.003589714 0.008377143
l -0.002393143 0.009573714
l -0.058638857 -0.013163429
l 0 0
l -0.059835429 -0.009573714
l 0.001196571 -0.009573714
l 0 -0.010770286
l -0.001196571 -0.009573714
l -0.001196571 -0.009573714
l -0.001196571 -0.009573714
l -0.002393143 -0.009573714
l -0.002393143 -0.010770286
l -0.002393143 -0.009573714
l -0.003589714 -0.009573714
l -0.003589714 -0.010770286
l -0.003589714 -0.009573714
l -0.003589714 -0.009573714
l -0.004786286 -0.010770286
l -0.003589714 -0.009573714
l -0.004786286 -0.009573714
l -0.004786286 -0.010770286
l -0.005984 -0.009573714
l -0.004786286 -0.009573714
l -0.005984 -0.009573714
l -0.005984 -0.010770286
l -0.094540571 0
l -0.005984 0.010770286
l -0.005984 0.009573714
l -0.004786286 0.009573714
l -0.005984 0.009573714
l -0.004786286 0.010770286
l -0.004786286 0.009573714
l -0.004786286 0.009573714
l -0.003589714 0.010770286
l -0.003589714 0.009573714
l -0.003589714 0.009573714
l -0.003589714 0.010770286
l -0.003589714 0.009573714
l -0.002393143 0.009573714
l -0.002393143 0.010770286
l -0.002393143 0.009573714
l -0.001196571 0.009573714
l -0.001196571 0.009573714
l -0.001196571 0.009573714
l 0 0.010770286
l 0 0.009573714
l -0.058638857 0.009573714
l 0 0
l -0.058638857 0.013163429
l -0.002393143 -0.009573714
l -0.003589714 -0.008377143
l -0.004786286 -0.008377143
l -0.004786286 -0.008377143
l -0.005984 -0.008377143
l -0.005984 -0.008377143
l -0.005984 -0.008377143
l -0.005984 -0.008377143
l -0.005984 -0.008377143
l -0.007180571 -0.007180571
l -0.007180571 -0.008377143
l -0.007180571 -0.007180571
l -0.008377143 -0.008377143
l -0.007180571 -0.007180571
l -0.008377143 -0.007180571
l -0.008377143 -0.007180571
l -0.009573714 -0.007180571
l -0.008377143 -0.007180571
l -0.009573714 -0.007180571
l -0.008377143 -0.007180571
l -0.08736 0.035901714
l -0.002393143 0.011966857
l -0.001196571 0.010770286
l -0.001196571 0.011966857
l -0.001196571 0.010770286
l 0 0.011966857
l -0.001196571 0.010770286
l 0 0.010770286
l 0 0.010770286
l 0 0.010770286
l 0 0.010770286
l 0.001196571 0.009573714
l 0.001196571 0.010770286
l 0.001196571 0.010770286
l 0.001196571 0.009573714
l 0.002393143 0.009573714
l 0.001196571 0.010770286
l 0.003589714 0.009573714
l 0.002393143 0.008377143
l 0.003589714 0.009573714
l 0.004786286 0.008377143
l -0.051458286 0.031114286
l 0 0
l -0.049065143 0.035901714
l -0.005984 -0.008377143
l -0.007180571 -0.005984
l -0.007180571 -0.005984
l -0.007180571 -0.005984
l -0.008377143 -0.005984
l -0.008377143 -0.005984
l -0.009573714 -0.004786286
l -0.008377143 -0.005984
l -0.009573714 -0.004786286
l -0.009573714 -0.004786286
l -0.009573714 -0.003589714
l -0.009573714 -0.004786286
l -0.009573714 -0.003589714
l -0.010770286 -0.003589714
l -0.009573714 -0.004786286
l -0.010770286 -0.003589714
l -0.010770286 -0.002393143
l -0.010770286 -0.003589714
l -0.011966857 -0.002393143
l -0.010770286 -0.003589714
l -0.067016 0.067016
l 0.003589714 0.010770286
l 0.002393143 0.011966857
l 0.003589714 0.010770286
l 0.002393143 0.010770286
l 0.003589714 0.010770286
l 0.004786286 0.009573714
l 0.003589714 0.010770286
l 0.003589714 0.009573714
l 0.004786286 0.009573714
l 0.003589714 0.009573714
l 0.004786286 0.009573714
l 0.004786286 0.009573714
l 0.005984 0.008377143
l 0.004786286 0.009573714
l 0.005984 0.008377143
l 0.005984 0.008377143
l 0.005984 0.007180571
l 0.005984 0.007180571
l 0.005984 0.007180571
l 0.008377143 0.005984
l -0.035901714 0.049065143
l 0 0
l -0.031114286 0.051458286
l -0.008377143 -0.004786286
l -0.009573714 -0.003589714
l -0.008377143 -0.002393143
l -0.009573714 -0.003589714
l -0.010770286 -0.001196571
l -0.009573714 -0.002393143
l -0.009573714 -0.001196571
l -0.010770286 -0.001196571
l -0.010770286 -0.001196571
l -0.009573714 -0.001196571
l -0.010770286 0
l -0.010770286 0
l -0.010770286 0
l -0.010770286 0
l -0.010770286 0.001196571
l -0.011966857 0
l -0.010770286 0.001196571
l -0.011966857 0.001196571
l -0.010770286 0.001196571
l -0.011966857 0.002393143
l -0.035901714 0.08736
l 0.007180571 0.008377143
l 0.007180571 0.009573714
l 0.007180571 0.008377143
l 0.007180571 0.009573714
l 0.007180571 0.008377143
l 0.007180571 0.008377143
l 0.007180571 0.007180571
l 0.008377143 0.008377143
l 0.007180571 0.007180571
l 0.008377143 0.007180571
l 0.007180571 0.007180571
l 0.008377143 0.005984
l 0.008377143 0.005984
l 0.008377143 0.005984
l 0.008377143 0.005984
l 0.008377143 0.005984
l 0.008377143 0.004786286
l 0.008377143 0.004786286
l 0.008377143 0.003589714
l 0.009573714 0.002393143
l -0.013163429 0.058638857
l 0 0
l -0.009573714 0.058638857
l -0.009573714 0
l -0.010770286 0
l -0.009573714 0.001196571
l -0.009573714 0.001196571
l -0.009573714 0.001196571
l -0.009573714 0.002393143
l -0.010770286 0.002393143
l -0.009573714 0.002393143
l -0.009573714 0.003589714
l -0.010770286 0.003589714
l -0.009573714 0.003589714
l -0.009573714 0.003589714
l -0.010770286 0.003589714
l -0.009573714 0.004786286
l -0.009573714 0.004786286
l -0.010770286 0.004786286
l -0.009573714 0.005984
l -0.009573714 0.004786286
l -0.009573714 0.005984
l -0.010770286 0.005984
l 0 0.094540571
l 0.010770286 0.005984
l 0.009573714 0.005984
l 0.009573714 0.004786286
l 0.009573714 0.005984
l 0.010770286 0.004786286
l 0.009573714 0.004786286
l 0.009573714 0.003589714
l 0.010770286 0.004786286
l 0.009573714 0.003589714
l 0.009573714 0.003589714
l 0.010770286 0.003589714
l 0.009573714 0.003589714
l 0.009573714 0.002393143
l 0.010770286 0.002393143
l 0.009573714 0.002393143
l 0.009573714 0.001196571
l 0.009573714 0.001196571
l 0.009573714 0.001196571
l 0.010770286 0
l 0.009573714 -0.001196571
l 0.009573714 0.059835429
l 0 0
l 0.013163429 0.058638857
l -0.009573714 0.002393143
l -0.008377143 0.003589714
l -0.008377143 0.004786286
l -0.008377143 0.004786286
l -0.008377143 0.005984
l -0.008377143 0.004786286
l -0.008377143 0.005984
l -0.008377143 0.007180571
l -0.008377143 0.005984
l -0.007180571 0.007180571
l -0.008377143 0.007180571
l -0.007180571 0.007180571
l -0.008377143 0.008377143
l -0.007180571 0.007180571
l -0.007180571 0.008377143
l -0.007180571 0.008377143
l -0.007180571 0.008377143
l -0.007180571 0.009573714
l -0.007180571 0.008377143
l -0.007180571 0.009573714
l 0.035901714 0.08736
l 0.011966857 0.001196571
l 0.010770286 0.002393143
l 0.011966857 0.001196571
l 0.010770286 0.001196571
l 0.011966857 0
l 0.010770286 0.001196571
l 0.010770286 0
l 0.010770286 0
l 0.010770286 0
l 0.010770286 0
l 0.009573714 -0.001196571
l 0.010770286 -0.001196571
l 0.010770286 -0.001196571
l 0.009573714 -0.001196571
l 0.009573714 -0.002393143
l 0.010770286 -0.002393143
l 0.009573714 -0.002393143
l 0.008377143 -0.002393143
l 0.009573714 -0.003589714
l 0.008377143 -0.004786286
l 0.031114286 0.051458286
l 0 0
l 0.035901714 0.047868571
l -0.008377143 0.005984
l -0.005984 0.007180571
l -0.005984 0.008377143
l -0.005984 0.007180571
l -0.005984 0.008377143
l -0.005984 0.008377143
l -0.004786286 0.008377143
l -0.005984 0.009573714
l -0.004786286 0.008377143
l -0.004786286 0.009573714
l -0.003589714 0.009573714
l -0.004786286 0.010770286
l -0.003589714 0.009573714
l -0.003589714 0.009573714
l -0.004786286 0.010770286
l -0.003589714 0.010770286
l -0.002393143 0.010770286
l -0.003589714 0.010770286
l -0.002393143 0.010770286
l -0.003589714 0.011966857
l 0.067016 0.065819429
l 0.010770286 -0.002393143
l 0.011966857 -0.002393143
l 0.010770286 -0.003589714
l 0.010770286 -0.003589714
l 0.010770286 -0.003589714
l 0.009573714 -0.003589714
l 0.010770286 -0.003589714
l 0.009573714 -0.003589714
l 0.009573714 -0.004786286
l 0.009573714 -0.004786286
l 0.009573714 -0.004786286
l 0.009573714 -0.004786286
l 0.008377143 -0.004786286
l 0.009573714 -0.004786286
l 0.008377143 -0.005984
l 0.008377143 -0.005984
l 0.007180571 -0.005984
l 0.007180571 -0.005984
l 0.007180571 -0.007180571
l 0.005984 -0.007180571
l 0.049065143 0.034704
l 0 0
l 0.051458286 0.032310857
l -0.004786286 0.008377143
l -0.003589714 0.008377143
l -0.002393143 0.009573714
l -0.003589714 0.009573714
l -0.001196571 0.009573714
l -0.002393143 0.010770286
l -0.001196571 0.009573714
l -0.001196571 0.010770286
l -0.001196571 0.009573714
l -0.001196571 0.010770286
l 0 0.010770286
l 0 0.010770286
l 0 0.010770286
l 0 0.010770286
l 0.001196571 0.010770286
l 0 0.010770286
l 0.001196571 0.011966857
l 0.001196571 0.010770286
l 0.001196571 0.011966857
l 0.002393143 0.010770286
l 0.08736 0.035901714
l 0.008377143 -0.005984
l 0.009573714 -0.007180571
l 0.008377143 -0.007180571
l 0.009573714 -0.007180571
l 0.008377143 -0.007180571
l 0.008377143 -0.007180571
l 0.007180571 -0.008377143
l 0.008377143 -0.007180571
l 0.007180571 -0.007180571
l 0.007180571 -0.008377143
l 0.007180571 -0.007180571
l 0.005984 -0.008377143
l 0.005984 -0.008377143
l 0.005984 -0.008377143
l 0.005984 -0.008377143
l 0.005984 -0.008377143
l 0.004786286 -0.008377143
l 0.004786286 -0.008377143
l 0.003589714 -0.009573714
l 0.002393143 -0.008377143
l 0.058638857 0.013163429
l 0 0
l 0.058638857 0.009573714
l 0 0.009573714
l 0 0.009573714
l 0.001196571 0.009573714
l 0.001196571 0.010770286
l 0.001196571 0.009573714
l 0.002393143 0.009573714
l 0.002393143 0.009573714
l 0.002393143 0.010770286
l 0.003589714 0.009573714
l 0.003589714 0.009573714
l 0.003589714 0.010770286
l 0.003589714 0.009573714
l 0.003589714 0.009573714
l 0.004786286 0.010770286
l 0.004786286 0.009573714
l 0.004786286 0.009573714
l 0.005984 0.010770286
l 0.004786286 0.009573714
l 0.005984 0.009573714
l 0.005984 0.009573714
l 0.094540571 0
l 0.005984 -0.009573714
l 0.005984 -0.009573714
l 0.004786286 -0.009573714
l 0.005984 -0.010770286
l 0.004786286 -0.009573714
l 0.004786286 -0.009573714
l 0.003589714 -0.010770286
l 0.004786286 -0.009573714
l 0.003589714 -0.009573714
l 0.003589714 -0.010770286
l 0.003589714 -0.009573714
l 0.003589714 -0.009573714
l 0.002393143 -0.010770286
l 0.002393143 -0.009573714
l 0.002393143 -0.009573714
l 0.001196571 -0.009573714
l 0.001196571 -0.010770286
l 0.001196571 -0.009573714
l 0 -0.009573714
l -0.001196571 -0.009573714
l 0.059835429 -0.009573714
l 0 0
l 0.058638857 -0.013163429
l 0.002393143 0.008377143
l 0.003589714 0.009573714
l 0.004786286 0.008377143
l 0.004786286 0.008377143
l 0.005984 0.008377143
l 0.004786286 0.008377143
l 0.005984 0.008377143
l 0.007180571 0.008377143
l 0.005984 0.008377143
l 0.007180571 0.007180571
l 0.007180571 0.008377143
l 0.007180571 0.007180571
l 0.008377143 0.007180571
l 0.007180571 0.008377143
l 0.008377143 0.007180571
l 0.008377143 0.007180571
l 0.008377143 0.007180571
l 0.009573714 0.007180571
l 0.008377143 0.007180571
l 0.009573714 0.005984
l 0.08736 -0.035901714
l 0.001196571 -0.010770286
l 0.002393143 -0.011966857
l 0.001196571 -0.010770286
l 0.001196571 -0.011966857
l 0 -0.010770286
l 0.001196571 -0.010770286
l 0 -0.010770286
l 0 -0.010770286
l 0 -0.010770286
l 0 -0.010770286
l -0.001196571 -0.010770286
l -0.001196571 -0.009573714
l -0.001196571 -0.010770286
l -0.001196571 -0.009573714
l -0.002393143 -0.010770286
l -0.002393143 -0.009573714
l -0.002393143 -0.009573714
l -0.002393143 -0.009573714
l -0.003589714 -0.008377143
l -0.004786286 -0.008377143
l 0.051458286 -0.032310857
l 0 0
l 0.047868571 -0.034704
l 0.005984 0.007180571
l 0.007180571 0.007180571
l 0.008377143 0.005984
l 0.007180571 0.005984
l 0.008377143 0.005984
l 0.008377143 0.005984
l 0.008377143 0.004786286
l 0.009573714 0.004786286
l 0.008377143 0.004786286
l 0.009573714 0.004786286
l 0.009573714 0.004786286
l 0.010770286 0.004786286
l 0.009573714 0.003589714
l 0.009573714 0.003589714
l 0.010770286 0.003589714
l 0.010770286 0.003589714
l 0.010770286 0.003589714
l 0.010770286 0.003589714
l 0.010770286 0.002393143
l 0.011966857 0.002393143
l 0.065819429 -0.065819429
l -0.002393143 -0.011966857
l -0.002393143 -0.010770286
l -0.003589714 -0.010770286
l -0.003589714 -0.010770286
l -0.003589714 -0.010770286
l -0.003589714 -0.010770286
l -0.003589714 -0.009573714
l -0.003589714 -0.009573714
l -0.004786286 -0.010770286
l -0.004786286 -0.009573714
l -0.004786286 -0.009573714
l -0.004786286 -0.008377143
l -0.004786286 -0.009573714
l -0.004786286 -0.008377143
l -0.005984 -0.008377143
l -0.005984 -0.008377143
l -0.005984 -0.007180571
l -0.005984 -0.008377143
l -0.007180571 -0.007180571
l -0.007180571 -0.005984
l 0.034704 -0.047868571
l 0 0
l 0.032310857 -0.051458286
l 0.008377143 0.004786286
l 0.008377143 0.003589714
l 0.009573714 0.002393143
l 0.009573714 0.002393143
l 0.009573714 0.002393143
l 0.010770286 0.002393143
l 0.009573714 0.001196571
l 0.010770286 0.001196571
l 0.009573714 0.001196571
l 0.010770286 0.001196571
l 0.010770286 0
l 0.010770286 0
l 0.010770286 0
l 0.010770286 0
l 0.010770286 -0.001196571
l 0.010770286 0
l 0.011966857 -0.001196571
l 0.010770286 -0.001196571
l 0.011966857 -0.002393143
l 0.010770286 -0.001196571
l 0.035901714 -0.08736
l -0.005984 -0.009573714
l -0.007180571 -0.008377143
l -0.007180571 -0.009573714
l -0.007180571 -0.008377143
l -0.007180571 -0.008377143
l -0.007180571 -0.008377143
l -0.008377143 -0.007180571
l -0.007180571 -0.008377143
l -0.007180571 -0.007180571
l -0.008377143 -0.007180571
l -0.007180571 -0.007180571
l -0.008377143 -0.005984
l -0.008377143 -0.007180571
l -0.008377143 -0.005984
l -0.008377143 -0.004786286
l -0.008377143 -0.005984
l -0.008377143 -0.004786286
l -0.008377143 -0.004786286
l -0.009573714 -0.003589714
l -0.008377143 -0.002393143
l 0.013163429 -0.058638857
" stroke="red" stroke-width="0.01" fill="none"/>
<circle cx="0" cy="0" r=".13" stroke-width="0.01" stroke="red" fill="none" />
<text text-anchor="middle" y="-.4" font-size="0.1" font-family="courier" fill="blue">2:1 Output</text>
</g>
</defs>
<line x1="-.126" y1="0" x2=".126" y2="0" stroke-width="0.02" fill="black" stroke="blue" />
<line y1="-.126" x1="0" y2=".126" x2="0" stroke-width="0.02" fill="black" stroke="blue" />
<use xlink:href="#hpgl2svg" x="0" y="0"/>
</svg>
