<?xml version="1.0" standalone="no"?>
<!DOCTYPE svg PUBLIC "-//W3C//DTD SVG 20010904//EN" "http://www.w3.org/TR/2001/REC-SVG-20010904/DTD/svg10.dtd">
<svg version="1.0" xmlns="http://www.w3.org/2000/svg"  xmlns:xlink="http://www.w3.org/1999/xlink" width="5in" height="5in" viewBox="-2.5 -2.5 5 5">
<defs>
<g id="hpgl2svg">
    <path d="
M 0.361406857 0.149589714
l 0.020344 -0.062228571
l 0.009573714 0.002393143
l 0.009573714 0.002393143
l 0.008377143 0.002393143
l 0.009573714 0.002393143
l 0.009573714 0.001196571
l 0.009573714 0.001196571
l 0.009573714 0
l 0.010770286 0
l 0.009573714 -0.002393143
l 0.010770286 -0.002393143
l 0.009573714 -0.002393143
l 0.010770286 -0.003589714
l 0.009573714 -0.003589714
l 0.010770286 -0.004786286
l 0.010770286 -0.004786286
l 0.010770286 -0.004786286
l 0.009573714 -0.005984
l 0.010770286 -0.005984
l 0.009573714 -0.007180571
l 0.010770286 -0.007180571
l 0 -0.088556571
l -0.010770286 -0.007180571
l -0.009573714 -0.007180571
l -0.010770286 -0.005984
l -0.009573714 -0.005984
l -0.010770286 -0.004786286
l -0.010770286 -0.005984
l -0.010770286 -0.003589714
l -0.009573714 -0.003589714
l -0.010770286 -0.003589714
l -0.009573714 -0.003589714
l -0.010770286 -0.001196571
l -0.009573714 -0.002393143
l -0.010770286 0
l -0.009573714 -0.001196571
l -0.009573714 0.001196571
l -0.009573714 0.002393143
l -0.009573714 0.002393143
l -0.008377143 0.002393143
l -0.009573714 0.002393143
l -0.009573714 0.001196571
l -0.020344 -0.061032
l 0 0
l -0.028721143 -0.058638857
l 0.007180571 -0.004786286
l 0.008377143 -0.004786286
l 0.008377143 -0.004786286
l 0.008377143 -0.005984
l 0.007180571 -0.004786286
l 0.008377143 -0.005984
l 0.007180571 -0.007180571
l 0.005984 -0.007180571
l 0.005984 -0.008377143
l 0.005984 -0.008377143
l 0.004786286 -0.009573714
l 0.004786286 -0.009573714
l 0.004786286 -0.010770286
l 0.004786286 -0.009573714
l 0.003589714 -0.010770286
l 0.003589714 -0.011966857
l 0.003589714 -0.010770286
l 0.002393143 -0.011966857
l 0.002393143 -0.011966857
l 0.002393143 -0.013163429
l -0.063425143 -0.062228571
l -0.011966857 0.002393143
l -0.011966857 0.002393143
l -0.011966857 0.002393143
l -0.010770286 0.003589714
l -0.011966857 0.003589714
l -0.010770286 0.003589714
l -0.009573714 0.004786286
l -0.010770286 0.004786286
l -0.009573714 0.004786286
l -0.009573714 0.004786286
l -0.008377143 0.005984
l -0.008377143 0.005984
l -0.007180571 0.005984
l -0.007180571 0.007180571
l -0.005984 0.007180571
l -0.004786286 0.008377143
l -0.005984 0.008377143
l -0.004786286 0.008377143
l -0.004786286 0.008377143
l -0.004786286 0.007180571
l -0.058638857 -0.029917714
l 0 0
l -0.062228571 -0.019147429
l 0.002393143 -0.009573714
l 0.002393143 -0.009573714
l 0.002393143 -0.009573714
l 0.002393143 -0.008377143
l 0.001196571 -0.009573714
l 0.001196571 -0.009573714
l 0 -0.009573714
l 0 -0.010770286
l -0.002393143 -0.009573714
l -0.002393143 -0.010770286
l -0.002393143 -0.009573714
l -0.003589714 -0.010770286
l -0.003589714 -0.010770286
l -0.004786286 -0.009573714
l -0.004786286 -0.010770286
l -0.004786286 -0.010770286
l -0.005984 -0.009573714
l -0.005984 -0.010770286
l -0.007180571 -0.010770286
l -0.007180571 -0.009573714
l -0.088556571 0
l -0.007180571 0.009573714
l -0.007180571 0.010770286
l -0.005984 0.010770286
l -0.005984 0.009573714
l -0.004786286 0.010770286
l -0.005984 0.010770286
l -0.003589714 0.009573714
l -0.003589714 0.010770286
l -0.003589714 0.010770286
l -0.003589714 0.009573714
l -0.001196571 0.010770286
l -0.002393143 0.009573714
l 0 0.010770286
l -0.001196571 0.009573714
l 0.001196571 0.009573714
l 0.002393143 0.009573714
l 0.002393143 0.008377143
l 0.002393143 0.009573714
l 0.002393143 0.009573714
l 0.001196571 0.009573714
l -0.061032 0.019147429
l 0 0
l -0.058638857 0.029917714
l -0.004786286 -0.007180571
l -0.004786286 -0.008377143
l -0.004786286 -0.008377143
l -0.005984 -0.008377143
l -0.004786286 -0.008377143
l -0.005984 -0.007180571
l -0.007180571 -0.007180571
l -0.007180571 -0.005984
l -0.008377143 -0.005984
l -0.008377143 -0.005984
l -0.009573714 -0.004786286
l -0.009573714 -0.004786286
l -0.010770286 -0.004786286
l -0.009573714 -0.004786286
l -0.010770286 -0.003589714
l -0.011966857 -0.003589714
l -0.010770286 -0.003589714
l -0.011966857 -0.002393143
l -0.011966857 -0.002393143
l -0.013163429 -0.002393143
l -0.062228571 0.062228571
l 0.002393143 0.013163429
l 0.002393143 0.011966857
l 0.002393143 0.011966857
l 0.003589714 0.010770286
l 0.003589714 0.011966857
l 0.003589714 0.010770286
l 0.004786286 0.009573714
l 0.004786286 0.010770286
l 0.004786286 0.009573714
l 0.004786286 0.009573714
l 0.005984 0.008377143
l 0.005984 0.008377143
l 0.005984 0.007180571
l 0.007180571 0.007180571
l 0.007180571 0.005984
l 0.008377143 0.004786286
l 0.008377143 0.005984
l 0.008377143 0.004786286
l 0.008377143 0.004786286
l 0.007180571 0.004786286
l -0.029917714 0.058638857
l 0 0
l -0.019147429 0.061032
l -0.009573714 -0.001196571
l -0.009573714 -0.002393143
l -0.009573714 -0.002393143
l -0.008377143 -0.002393143
l -0.009573714 -0.002393143
l -0.009573714 -0.001196571
l -0.009573714 0.001196571
l -0.010770286 0
l -0.009573714 0.002393143
l -0.010770286 0.001196571
l -0.009573714 0.003589714
l -0.010770286 0.003589714
l -0.010770286 0.003589714
l -0.009573714 0.003589714
l -0.010770286 0.005984
l -0.010770286 0.004786286
l -0.009573714 0.005984
l -0.010770286 0.005984
l -0.010770286 0.007180571
l -0.009573714 0.007180571
l 0 0.088556571
l 0.009573714 0.007180571
l 0.010770286 0.007180571
l 0.010770286 0.005984
l 0.009573714 0.005984
l 0.010770286 0.004786286
l 0.010770286 0.004786286
l 0.009573714 0.004786286
l 0.010770286 0.003589714
l 0.010770286 0.003589714
l 0.009573714 0.002393143
l 0.010770286 0.002393143
l 0.009573714 0.002393143
l 0.010770286 0
l 0.009573714 0
l 0.009573714 -0.001196571
l 0.009573714 -0.001196571
l 0.008377143 -0.002393143
l 0.009573714 -0.002393143
l 0.009573714 -0.002393143
l 0.009573714 -0.002393143
l 0.019147429 0.062228571
l 0 0
l 0.029917714 0.058638857
l -0.007180571 0.004786286
l -0.008377143 0.004786286
l -0.008377143 0.004786286
l -0.008377143 0.005984
l -0.008377143 0.004786286
l -0.007180571 0.005984
l -0.007180571 0.007180571
l -0.005984 0.007180571
l -0.005984 0.008377143
l -0.005984 0.008377143
l -0.004786286 0.009573714
l -0.004786286 0.009573714
l -0.004786286 0.010770286
l -0.004786286 0.009573714
l -0.003589714 0.010770286
l -0.003589714 0.011966857
l -0.003589714 0.010770286
l -0.002393143 0.011966857
l -0.002393143 0.011966857
l -0.002393143 0.011966857
l 0.062228571 0.063425143
l 0.013163429 -0.002393143
l 0.011966857 -0.002393143
l 0.011966857 -0.002393143
l 0.010770286 -0.003589714
l 0.011966857 -0.003589714
l 0.010770286 -0.003589714
l 0.009573714 -0.004786286
l 0.010770286 -0.004786286
l 0.009573714 -0.004786286
l 0.009573714 -0.004786286
l 0.008377143 -0.005984
l 0.008377143 -0.005984
l 0.007180571 -0.005984
l 0.007180571 -0.007180571
l 0.005984 -0.008377143
l 0.004786286 -0.007180571
l 0.005984 -0.008377143
l 0.004786286 -0.008377143
l 0.004786286 -0.008377143
l 0.004786286 -0.007180571
l 0.058638857 0.028721143
l 0 0
l 0.061032 0.020344
l -0.001196571 0.009573714
l -0.002393143 0.009573714
l -0.002393143 0.008377143
l -0.002393143 0.009573714
l -0.002393143 0.009573714
l -0.001196571 0.009573714
l 0.001196571 0.009573714
l 0 0.010770286
l 0.002393143 0.009573714
l 0.001196571 0.010770286
l 0.003589714 0.009573714
l 0.003589714 0.010770286
l 0.003589714 0.009573714
l 0.003589714 0.010770286
l 0.005984 0.010770286
l 0.004786286 0.010770286
l 0.005984 0.009573714
l 0.005984 0.010770286
l 0.007180571 0.009573714
l 0.007180571 0.010770286
l 0.088556571 0
l 0.007180571 -0.010770286
l 0.007180571 -0.009573714
l 0.005984 -0.010770286
l 0.005984 -0.009573714
l 0.004786286 -0.010770286
l 0.004786286 -0.010770286
l 0.004786286 -0.010770286
l 0.003589714 -0.009573714
l 0.003589714 -0.010770286
l 0.002393143 -0.009573714
l 0.002393143 -0.010770286
l 0.002393143 -0.009573714
l 0 -0.010770286
l 0 -0.009573714
l -0.001196571 -0.009573714
l -0.001196571 -0.009573714
l -0.002393143 -0.009573714
l -0.002393143 -0.008377143
l -0.002393143 -0.009573714
l -0.002393143 -0.009573714
l 0.062228571 -0.020344
l 0 0
l 0.058638857 -0.028721143
l 0.004786286 0.007180571
l 0.004786286 0.008377143
l 0.004786286 0.008377143
l 0.005984 0.008377143
l 0.004786286 0.007180571
l 0.005984 0.008377143
l 0.007180571 0.007180571
l 0.007180571 0.005984
l 0.008377143 0.005984
l 0.008377143 0.005984
l 0.009573714 0.004786286
l 0.009573714 0.004786286
l 0.010770286 0.004786286
l 0.009573714 0.004786286
l 0.010770286 0.003589714
l 0.011966857 0.003589714
l 0.010770286 0.003589714
l 0.011966857 0.002393143
l 0.011966857 0.002393143
l 0.011966857 0.002393143
l 0.063425143 -0.063425143
l -0.002393143 -0.011966857
l -0.002393143 -0.011966857
l -0.002393143 -0.011966857
l -0.003589714 -0.010770286
l -0.003589714 -0.011966857
l -0.003589714 -0.010770286
l -0.004786286 -0.009573714
l -0.004786286 -0.010770286
l -0.004786286 -0.009573714
l -0.004786286 -0.009573714
l -0.005984 -0.008377143
l -0.005984 -0.008377143
l -0.005984 -0.007180571
l -0.007180571 -0.007180571
l -0.008377143 -0.005984
l -0.007180571 -0.004786286
l -0.008377143 -0.005984
l -0.008377143 -0.004786286
l -0.008377143 -0.004786286
l -0.007180571 -0.004786286
l 0.028721143 -0.058638857
" stroke="red" stroke-width="0.01" fill="none"/>
<circle cx="0" cy="0" r=".13" stroke-width="0.01" stroke="red" fill="none" />
<line x1="0.01" y1="0" x2="+0.99" y2="0.0" stroke-width="0.01" fill="none" stroke="black" />
</g>
</defs>
<line x1="-.126" y1="0" x2=".126" y2="0" stroke-width="0.02" fill="black" stroke="blue" />
<line y1="-.126" x1="0" y2=".126" x2="0" stroke-width="0.02" fill="black" stroke="blue" />
<use xlink:href="#hpgl2svg" x="0" y="0"/>
</svg>
