<?xml version="1.0" standalone="no"?>
<!DOCTYPE svg PUBLIC "-//W3C//DTD SVG 20010904//EN" "http://www.w3.org/TR/2001/REC-SVG-20010904/DTD/svg10.dtd">
<svg version="1.0" xmlns="http://www.w3.org/2000/svg"  xmlns:xlink="http://www.w3.org/1999/xlink" width="5in" height="5in" viewBox="-2.5 -2.5 5 5">
<defs>
<g id="hpgl2svg">
    <path d="
M 0.146597,0.000000
l 0.000000,0.000000
l 0.000000,0.010471
l -0.001047,0.009424
l -0.002094,0.010471
l -0.002094,0.010471
l -0.004188,0.009424
l -0.003141,0.009424
l -0.004188,0.009424
l -0.005236,0.008377
l -0.006283,0.008377
l -0.006283,0.008377
l -0.006283,0.007330
l -0.007330,0.007330
l -0.008377,0.006283
l -0.008377,0.006283
l -0.008377,0.005236
l -0.009424,0.005236
l -0.009424,0.004188
l -0.009424,0.003141
l -0.009424,0.003141
l -0.010471,0.002094
l -0.009424,0.001047
l -0.010471,0.001047
l -0.010471,0.000000
l -0.010471,-0.001047
l -0.009424,-0.001047
l -0.010471,-0.002094
l -0.009424,-0.003141
l -0.010471,-0.003141
l -0.008377,-0.004188
l -0.009424,-0.005236
l -0.008377,-0.005236
l -0.008377,-0.006283
l -0.008377,-0.006283
l -0.007330,-0.007330
l -0.006283,-0.007330
l -0.006283,-0.008377
l -0.006283,-0.008377
l -0.005236,-0.008377
l -0.004188,-0.009424
l -0.004188,-0.009424
l -0.003141,-0.009424
l -0.002094,-0.010471
l -0.002094,-0.010471
l -0.001047,-0.009424
l 0.000000,-0.010471
l 0.000000,-0.010471
l 0.001047,-0.010471
l 0.002094,-0.009424
l 0.002094,-0.010471
l 0.003141,-0.009424
l 0.004188,-0.009424
l 0.004188,-0.009424
l 0.005236,-0.008377
l 0.006283,-0.008377
l 0.006283,-0.008377
l 0.006283,-0.007330
l 0.007330,-0.007330
l 0.008377,-0.006283
l 0.008377,-0.006283
l 0.008377,-0.005236
l 0.009424,-0.005236
l 0.008377,-0.004188
l 0.010471,-0.003141
l 0.009424,-0.003141
l 0.010471,-0.002094
l 0.009424,-0.001047
l 0.010471,-0.001047
l 0.010471,0.000000
l 0.010471,0.001047
l 0.009424,0.001047
l 0.010471,0.002094
l 0.009424,0.003141
l 0.009424,0.003141
l 0.009424,0.004188
l 0.009424,0.005236
l 0.008377,0.005236
l 0.008377,0.006283
l 0.008377,0.006283
l 0.007330,0.007330
l 0.006283,0.007330
l 0.006283,0.008377
l 0.006283,0.008377
l 0.005236,0.008377
l 0.004188,0.009424
l 0.003141,0.009424
l 0.004188,0.009424
l 0.002094,0.010471
l 0.002094,0.009424
l 0.001047,0.010471
l 0.000000,0.010471
M 0.316231,0.130891
l 0.017801,-0.054450
l 0.008377,0.002094
l 0.008377,0.002094
l 0.007330,0.002094
l 0.008377,0.002094
l 0.008377,0.001047
l 0.008377,0.001047
l 0.008377,0.000000
l 0.009424,0.000000
l 0.008377,-0.002094
l 0.009424,-0.002094
l 0.008377,-0.002094
l 0.009424,-0.003141
l 0.008377,-0.003141
l 0.009424,-0.004188
l 0.009424,-0.004188
l 0.009424,-0.004188
l 0.008377,-0.005236
l 0.009424,-0.005236
l 0.008377,-0.006283
l 0.009424,-0.006283
l 0.000000,-0.077487
l -0.009424,-0.006283
l -0.008377,-0.006283
l -0.009424,-0.005236
l -0.008377,-0.005236
l -0.009424,-0.004188
l -0.009424,-0.005236
l -0.009424,-0.003141
l -0.008377,-0.003141
l -0.009424,-0.003141
l -0.008377,-0.003141
l -0.009424,-0.001047
l -0.008377,-0.002094
l -0.009424,0.000000
l -0.008377,-0.001047
l -0.008377,0.001047
l -0.008377,0.002094
l -0.008377,0.002094
l -0.007330,0.002094
l -0.008377,0.002094
l -0.008377,0.001047
l -0.017801,-0.053403
l 0.000000,0.000000
l -0.025131,-0.051309
l 0.006283,-0.004188
l 0.007330,-0.004188
l 0.007330,-0.004188
l 0.007330,-0.005236
l 0.006283,-0.004188
l 0.007330,-0.005236
l 0.006283,-0.006283
l 0.005236,-0.006283
l 0.005236,-0.007330
l 0.005236,-0.007330
l 0.004188,-0.008377
l 0.004188,-0.008377
l 0.004188,-0.009424
l 0.004188,-0.008377
l 0.003141,-0.009424
l 0.003141,-0.010471
l 0.003141,-0.009424
l 0.002094,-0.010471
l 0.002094,-0.010471
l 0.002094,-0.011518
l -0.055497,-0.054450
l -0.010471,0.002094
l -0.010471,0.002094
l -0.010471,0.002094
l -0.009424,0.003141
l -0.010471,0.003141
l -0.009424,0.003141
l -0.008377,0.004188
l -0.009424,0.004188
l -0.008377,0.004188
l -0.008377,0.004188
l -0.007330,0.005236
l -0.007330,0.005236
l -0.006283,0.005236
l -0.006283,0.006283
l -0.005236,0.006283
l -0.004188,0.007330
l -0.005236,0.007330
l -0.004188,0.007330
l -0.004188,0.007330
l -0.004188,0.006283
l -0.051309,-0.026178
l 0.000000,0.000000
l -0.054450,-0.016754
l 0.002094,-0.008377
l 0.002094,-0.008377
l 0.002094,-0.008377
l 0.002094,-0.007330
l 0.001047,-0.008377
l 0.001047,-0.008377
l 0.000000,-0.008377
l 0.000000,-0.009424
l -0.002094,-0.008377
l -0.002094,-0.009424
l -0.002094,-0.008377
l -0.003141,-0.009424
l -0.003141,-0.009424
l -0.004188,-0.008377
l -0.004188,-0.009424
l -0.004188,-0.009424
l -0.005236,-0.008377
l -0.005236,-0.009424
l -0.006283,-0.009424
l -0.006283,-0.008377
l -0.077487,0.000000
l -0.006283,0.008377
l -0.006283,0.009424
l -0.005236,0.009424
l -0.005236,0.008377
l -0.004188,0.009424
l -0.005236,0.009424
l -0.003141,0.008377
l -0.003141,0.009424
l -0.003141,0.009424
l -0.003141,0.008377
l -0.001047,0.009424
l -0.002094,0.008377
l 0.000000,0.009424
l -0.001047,0.008377
l 0.001047,0.008377
l 0.002094,0.008377
l 0.002094,0.007330
l 0.002094,0.008377
l 0.002094,0.008377
l 0.001047,0.008377
l -0.053403,0.016754
l 0.000000,0.000000
l -0.051309,0.026178
l -0.004188,-0.006283
l -0.004188,-0.007330
l -0.004188,-0.007330
l -0.005236,-0.007330
l -0.004188,-0.007330
l -0.005236,-0.006283
l -0.006283,-0.006283
l -0.006283,-0.005236
l -0.007330,-0.005236
l -0.007330,-0.005236
l -0.008377,-0.004188
l -0.008377,-0.004188
l -0.009424,-0.004188
l -0.008377,-0.004188
l -0.009424,-0.003141
l -0.010471,-0.003141
l -0.009424,-0.003141
l -0.010471,-0.002094
l -0.010471,-0.002094
l -0.011518,-0.002094
l -0.054450,0.054450
l 0.002094,0.011518
l 0.002094,0.010471
l 0.002094,0.010471
l 0.003141,0.009424
l 0.003141,0.010471
l 0.003141,0.009424
l 0.004188,0.008377
l 0.004188,0.009424
l 0.004188,0.008377
l 0.004188,0.008377
l 0.005236,0.007330
l 0.005236,0.007330
l 0.005236,0.006283
l 0.006283,0.006283
l 0.006283,0.005236
l 0.007330,0.004188
l 0.007330,0.005236
l 0.007330,0.004188
l 0.007330,0.004188
l 0.006283,0.004188
l -0.026178,0.051309
l 0.000000,0.000000
l -0.016754,0.053403
l -0.008377,-0.001047
l -0.008377,-0.002094
l -0.008377,-0.002094
l -0.007330,-0.002094
l -0.008377,-0.002094
l -0.008377,-0.001047
l -0.008377,0.001047
l -0.009424,0.000000
l -0.008377,0.002094
l -0.009424,0.001047
l -0.008377,0.003141
l -0.009424,0.003141
l -0.009424,0.003141
l -0.008377,0.003141
l -0.009424,0.005236
l -0.009424,0.004188
l -0.008377,0.005236
l -0.009424,0.005236
l -0.009424,0.006283
l -0.008377,0.006283
l 0.000000,0.077487
l 0.008377,0.006283
l 0.009424,0.006283
l 0.009424,0.005236
l 0.008377,0.005236
l 0.009424,0.004188
l 0.009424,0.004188
l 0.008377,0.004188
l 0.009424,0.003141
l 0.009424,0.003141
l 0.008377,0.002094
l 0.009424,0.002094
l 0.008377,0.002094
l 0.009424,0.000000
l 0.008377,0.000000
l 0.008377,-0.001047
l 0.008377,-0.001047
l 0.007330,-0.002094
l 0.008377,-0.002094
l 0.008377,-0.002094
l 0.008377,-0.002094
l 0.016754,0.054450
l 0.000000,0.000000
l 0.026178,0.051309
l -0.006283,0.004188
l -0.007330,0.004188
l -0.007330,0.004188
l -0.007330,0.005236
l -0.007330,0.004188
l -0.006283,0.005236
l -0.006283,0.006283
l -0.005236,0.006283
l -0.005236,0.007330
l -0.005236,0.007330
l -0.004188,0.008377
l -0.004188,0.008377
l -0.004188,0.009424
l -0.004188,0.008377
l -0.003141,0.009424
l -0.003141,0.010471
l -0.003141,0.009424
l -0.002094,0.010471
l -0.002094,0.010471
l -0.002094,0.010471
l 0.054450,0.055497
l 0.011518,-0.002094
l 0.010471,-0.002094
l 0.010471,-0.002094
l 0.009424,-0.003141
l 0.010471,-0.003141
l 0.009424,-0.003141
l 0.008377,-0.004188
l 0.009424,-0.004188
l 0.008377,-0.004188
l 0.008377,-0.004188
l 0.007330,-0.005236
l 0.007330,-0.005236
l 0.006283,-0.005236
l 0.006283,-0.006283
l 0.005236,-0.007330
l 0.004188,-0.006283
l 0.005236,-0.007330
l 0.004188,-0.007330
l 0.004188,-0.007330
l 0.004188,-0.006283
l 0.051309,0.025131
l 0.000000,0.000000
l 0.053403,0.017801
l -0.001047,0.008377
l -0.002094,0.008377
l -0.002094,0.007330
l -0.002094,0.008377
l -0.002094,0.008377
l -0.001047,0.008377
l 0.001047,0.008377
l 0.000000,0.009424
l 0.002094,0.008377
l 0.001047,0.009424
l 0.003141,0.008377
l 0.003141,0.009424
l 0.003141,0.008377
l 0.003141,0.009424
l 0.005236,0.009424
l 0.004188,0.009424
l 0.005236,0.008377
l 0.005236,0.009424
l 0.006283,0.008377
l 0.006283,0.009424
l 0.077487,0.000000
l 0.006283,-0.009424
l 0.006283,-0.008377
l 0.005236,-0.009424
l 0.005236,-0.008377
l 0.004188,-0.009424
l 0.004188,-0.009424
l 0.004188,-0.009424
l 0.003141,-0.008377
l 0.003141,-0.009424
l 0.002094,-0.008377
l 0.002094,-0.009424
l 0.002094,-0.008377
l 0.000000,-0.009424
l 0.000000,-0.008377
l -0.001047,-0.008377
l -0.001047,-0.008377
l -0.002094,-0.008377
l -0.002094,-0.007330
l -0.002094,-0.008377
l -0.002094,-0.008377
l 0.054450,-0.017801
l 0.000000,0.000000
l 0.051309,-0.025131
l 0.004188,0.006283
l 0.004188,0.007330
l 0.004188,0.007330
l 0.005236,0.007330
l 0.004188,0.006283
l 0.005236,0.007330
l 0.006283,0.006283
l 0.006283,0.005236
l 0.007330,0.005236
l 0.007330,0.005236
l 0.008377,0.004188
l 0.008377,0.004188
l 0.009424,0.004188
l 0.008377,0.004188
l 0.009424,0.003141
l 0.010471,0.003141
l 0.009424,0.003141
l 0.010471,0.002094
l 0.010471,0.002094
l 0.010471,0.002094
l 0.055497,-0.055497
l -0.002094,-0.010471
l -0.002094,-0.010471
l -0.002094,-0.010471
l -0.003141,-0.009424
l -0.003141,-0.010471
l -0.003141,-0.009424
l -0.004188,-0.008377
l -0.004188,-0.009424
l -0.004188,-0.008377
l -0.004188,-0.008377
l -0.005236,-0.007330
l -0.005236,-0.007330
l -0.005236,-0.006283
l -0.006283,-0.006283
l -0.007330,-0.005236
l -0.006283,-0.004188
l -0.007330,-0.005236
l -0.007330,-0.004188
l -0.007330,-0.004188
l -0.006283,-0.004188
l 0.025131,-0.051309
" stroke="red" stroke-width="0.01" fill="white"/>
</g>
</defs>
<line x1="-.126" y1="0" x2=".126" y2="0" stroke-width="0.02" fill="black" stroke="blue" />
<line y1="-.126" x1="0" y2=".126" x2="0" stroke-width="0.02" fill="black" stroke="blue" />
<use xlink:href="#hpgl2svg" x="0" y="0"/>
</svg>
