<?xml version="1.0" standalone="no"?>
<!DOCTYPE svg PUBLIC "-//W3C//DTD SVG 20010904//EN" "http://www.w3.org/TR/2001/REC-SVG-20010904/DTD/svg10.dtd">
<svg version="1.0" xmlns="http://www.w3.org/2000/svg" xmlns:xlink="http://www.w3.org/1999/xlink" width="30in" height="18in" viewBox="0 0 30 18" style="background-color:#EEE">
    <!-- gear b -->
    <defs>
        <g id="8spoke-1in">
            <use xlink:href="8spoke-1in.svg#hpgl2svg"/>
        </g>
        <g id="16spoke-2in">
            <use xlink:href="16spoke-2in.svg#hpgl2svg"/>
        </g>
        <g id="spur-gear-train">
            <use xlink:href="spur-gear-train.svg#spur-gear-train"/>
        </g>
        <g id="cage-back-side">
            <use xlink:href="cage.svg#cage-back-side"/>
        </g>
        <g id="cage-top-side">
            <use xlink:href="cage.svg#cage-top-side"/>
        </g>
        <g id="cage-jig-pocket">
            <use xlink:href="cage.svg#cage-jig-pocket"/>
        </g>
        <g id="cage-jig-guide">
            <use xlink:href="cage.svg#cage-jig-guide"/>
        </g>
        <g id="cage-axle-mount">
            <use xlink:href="cage.svg#cage-axle-mount"/>
        </g>
        <g id="cage-rail-mount">
            <use xlink:href="cage.svg#cage-rail-mount"/>
        </g>
        <g id="spacer">
            <use xlink:href="cage.svg#spacer"/>
        </g>
        <g id="ratchet-on-axle">
            <use xlink:href="ratchet.svg#ratchet-on-axle"/>
        </g>
        <g id="ratchet-thru-axle">
            <use xlink:href="ratchet.svg#ratchet-thru-axle"/>
        </g>
        <g id="ratchet-pall">
            <use xlink:href="ratchet.svg#ratchet-pall"/>
        </g>
    </defs>

    <g display="none">
        <use xlink:href="#16spoke-2in" x="3.5" y="-3" />
        <use xlink:href="#8spoke-1in" x="5" y="-3" />
        <use xlink:href="#spacer" y="2" x="-1.5"/>

        <use xlink:href="#cage-back-side" />
        <use xlink:href="#cage-top-side" x="3"/>
        <use xlink:href="#cage-jig-pocket" y="-5.5" />
        <use xlink:href="#cage-jig-guide" y="-3"/>
        <use xlink:href="#spur-gear-train" display="none"/>

        <use xlink:href="#cage-axle-mount" x="-5" y="-1" />
        <use xlink:href="#16spoke-2in" display="none" transform="translate(-3.625 -1) rotate(11.25)" />
        <use xlink:href="#cage-rail-mount" x="-3" y="4" />
        <use xlink:href="#ratchet-on-axle" y="2" x="0"/>
        <use xlink:href="#ratchet-thru-axle" y="2" x="1.5"/>
        <use xlink:href="#ratchet-pall" y="2.5" x="2.5"/>
    </g>
    <g id="cut" display="show">
        <use xlink:href="#cage-back-side" x="2" y="1.5"/>
        <use xlink:href="#cage-back-side" x="2" y="4.0"/>
        <use xlink:href="#cage-back-side" x="2" y="6.5"/>
        <use xlink:href="#cage-back-side" x="2" y="9.0"/>
        <use xlink:href="#cage-back-side" x="2" y="11.5"/>
        <use xlink:href="#cage-back-side" x="2" y="14.0"/>
        <use xlink:href="#cage-top-side" x="4.5" y="1.5"/>
        <use xlink:href="#cage-top-side" x="4.5" y="4.0"/>
        <use xlink:href="#cage-top-side" x="4.5" y="6.5"/>
        <use xlink:href="#cage-top-side" x="4.5" y="9.0"/>
        <use xlink:href="#cage-top-side" x="4.5" y="11.5"/>
        <use xlink:href="#cage-top-side" x="4.5" y="14.0"/>
        <use xlink:href="#cage-axle-mount" x="8.5" y="2.25" />
        <use xlink:href="#cage-axle-mount" x="8.5" y="8.5" />
        <use xlink:href="#cage-axle-mount" x="14.25" y="2.25" />
        <use xlink:href="#cage-axle-mount" x="14.25" y="8.5" />
        <use xlink:href="#cage-axle-mount" x="20.0" y="2.25" />
        <use xlink:href="#cage-axle-mount" x="20.0" y="8.5" />
        <use xlink:href="#cage-rail-mount" x="11.1" y="13" />
        <use xlink:href="#cage-rail-mount" x="11.1" y="13.6" />
        <use xlink:href="#cage-rail-mount" x="11.1" y="14.2" />
        <use xlink:href="#cage-rail-mount" x="11.1" y="14.8" />
        <use xlink:href="#16spoke-2in" x="1.25" y="16.3" />
        <use xlink:href="#16spoke-2in" x="3.25" y="16.3" />
        <use xlink:href="#ratchet-thru-axle" y="15.9" x="5.1"/>
        <use xlink:href="#ratchet-on-axle" y="15.9" x="6.3"/>
        <use xlink:href="#8spoke-1in" x="22.75" y=".75" />
        <use xlink:href="#8spoke-1in" x="22.75" y="1.85" />
        <use xlink:href="#8spoke-1in" x="22.75" y="2.95" />
        <use xlink:href="#8spoke-1in" x="22.75" y="4.05" />
        <use xlink:href="#8spoke-1in" x="22.75" y="5.15" />
        <use xlink:href="#8spoke-1in" x="22.75" y="6.25" />
        <use xlink:href="#8spoke-1in" x="22.75" y="7.35" />
        <use xlink:href="#8spoke-1in" x="22.75" y="8.45" />
        <use xlink:href="#8spoke-1in" x="22.75" y="9.55" />
        <use xlink:href="#8spoke-1in" x="22.75" y="10.65" />
        <use xlink:href="#8spoke-1in" x="22.75" y="11.75" />
        <use xlink:href="#8spoke-1in" x="22.75" y="12.85" />
        <use xlink:href="#8spoke-1in" x="22.75" y="13.95" />
        <use xlink:href="#8spoke-1in" x="22.75" y="15.05" />
        <use xlink:href="#8spoke-1in" x="22.75" y="16.15" />
        <use xlink:href="#8spoke-1in" x="22.75" y="17.25" />
        <use xlink:href="#8spoke-1in" x="23.8" y=".75" />
        <use xlink:href="#8spoke-1in" x="23.8" y="1.85" />
        <use xlink:href="#8spoke-1in" x="23.8" y="2.95" />
        <use xlink:href="#8spoke-1in" x="23.8" y="4.05" />
        <use xlink:href="#8spoke-1in" x="23.8" y="5.15" />
        <use xlink:href="#8spoke-1in" x="23.8" y="6.25" />
        <use xlink:href="#8spoke-1in" x="23.8" y="7.35" />
        <use xlink:href="#8spoke-1in" x="23.8" y="8.45" />
        <use xlink:href="#8spoke-1in" x="23.8" y="9.55" />
        <use xlink:href="#8spoke-1in" x="23.8" y="10.65" />
        <use xlink:href="#8spoke-1in" x="23.8" y="11.75" />
        <use xlink:href="#8spoke-1in" x="23.8" y="12.85" />
        <use xlink:href="#8spoke-1in" x="23.8" y="13.95" />
        <use xlink:href="#8spoke-1in" x="23.8" y="15.05" />
        <use xlink:href="#8spoke-1in" x="23.8" y="16.15" />
        <use xlink:href="#8spoke-1in" x="23.8" y="17.25" />
        <use xlink:href="#8spoke-1in" x="24.9" y=".75" />
        <use xlink:href="#8spoke-1in" x="24.9" y="1.85" />
        <use xlink:href="#8spoke-1in" x="24.9" y="2.95" />
        <use xlink:href="#8spoke-1in" x="24.9" y="4.05" />
        <use xlink:href="#8spoke-1in" x="24.9" y="5.15" />
        <use xlink:href="#8spoke-1in" x="24.9" y="6.25" />
        <use xlink:href="#8spoke-1in" x="24.9" y="7.35" />
        <use xlink:href="#8spoke-1in" x="24.9" y="8.45" />
        <use xlink:href="#8spoke-1in" x="24.9" y="9.55" />
        <use xlink:href="#8spoke-1in" x="24.9" y="10.65" />
        <use xlink:href="#8spoke-1in" x="24.9" y="11.75" />
        <use xlink:href="#8spoke-1in" x="24.9" y="12.85" />
        <use xlink:href="#8spoke-1in" x="24.9" y="13.95" />
        <use xlink:href="#8spoke-1in" x="24.9" y="15.05" />
        <use xlink:href="#8spoke-1in" x="24.9" y="16.15" />
        <use xlink:href="#8spoke-1in" x="24.9" y="17.25" />
        <use xlink:href="#8spoke-1in" x="26.0" y=".75" />
        <use xlink:href="#8spoke-1in" x="26.0" y="1.85" />
        <use xlink:href="#8spoke-1in" x="26.0" y="2.95" />
        <use xlink:href="#8spoke-1in" x="26.0" y="4.05" />
        <use xlink:href="#8spoke-1in" x="26.0" y="5.15" />
        <use xlink:href="#8spoke-1in" x="26.0" y="6.25" />
        <use xlink:href="#8spoke-1in" x="26.0" y="7.35" />
        <use xlink:href="#8spoke-1in" x="26.0" y="8.45" />
        <use xlink:href="#8spoke-1in" x="26.0" y="9.55" />
        <use xlink:href="#8spoke-1in" x="26.0" y="10.65" />
        <use xlink:href="#8spoke-1in" x="26.0" y="11.75" />
        <use xlink:href="#8spoke-1in" x="26.0" y="12.85" />
        <use xlink:href="#8spoke-1in" x="26.0" y="13.95" />
        <use xlink:href="#8spoke-1in" x="26.0" y="15.05" />
        <use xlink:href="#8spoke-1in" x="26.0" y="16.15" />
        <use xlink:href="#8spoke-1in" x="26.0" y="17.25" />
        <use xlink:href="#spacer" x="27" y=".75" />
        <use xlink:href="#spacer" x="27" y="1.5" />
        <use xlink:href="#spacer" x="27" y="2.25" />
        <use xlink:href="#spacer" x="27" y="3" />
        <use xlink:href="#spacer" x="27" y="3.75" />
        <use xlink:href="#spacer" x="27" y="4.5" />
        <use xlink:href="#spacer" x="27" y="5.25" />
        <use xlink:href="#spacer" x="27" y="6.0" />
        <use xlink:href="#spacer" x="27" y="6.75" />
        <use xlink:href="#spacer" x="27" y="7.5" />
        <use xlink:href="#spacer" x="27" y="8.25" />
        <use xlink:href="#spacer" x="27" y="9.0" />
        <use xlink:href="#spacer" x="27" y="9.75" />
        <use xlink:href="#spacer" x="27" y="10.5" />
        <use xlink:href="#spacer" x="27" y="11.25" />
        <use xlink:href="#spacer" x="27" y="12.0" />
        <use xlink:href="#spacer" x="27" y="12.75" />
        <use xlink:href="#spacer" x="27" y="13.5" />
        <use xlink:href="#spacer" x="27" y="14.25" />
        <use xlink:href="#spacer" x="27" y="15.0" />
        <use xlink:href="#spacer" x="27" y="15.75" />
        <use xlink:href="#spacer" x="27" y="16.5" />
        <use xlink:href="#spacer" x="27" y="17.25" />
        <use xlink:href="#spacer" x="27.75" y=".75" />
        <use xlink:href="#spacer" x="27.75" y="1.5" />
        <use xlink:href="#spacer" x="27.75" y="2.25" />
        <use xlink:href="#spacer" x="27.75" y="3" />
        <use xlink:href="#spacer" x="27.75" y="3.75" />
        <use xlink:href="#spacer" x="27.75" y="4.5" />
        <use xlink:href="#spacer" x="27.75" y="5.25" />
        <use xlink:href="#spacer" x="27.75" y="6.0" />
        <use xlink:href="#spacer" x="27.75" y="6.75" />
        <use xlink:href="#spacer" x="27.75" y="7.5" />
        <use xlink:href="#spacer" x="27.75" y="8.25" />
        <use xlink:href="#spacer" x="27.75" y="9.0" />
        <use xlink:href="#spacer" x="27.75" y="9.75" />
        <use xlink:href="#spacer" x="27.75" y="10.5" />
        <use xlink:href="#spacer" x="27.75" y="11.25" />
        <use xlink:href="#spacer" x="27.75" y="12.0" />
        <use xlink:href="#spacer" x="27.75" y="12.75" />
        <use xlink:href="#spacer" x="27.75" y="13.5" />
        <use xlink:href="#spacer" x="27.75" y="14.25" />
        <use xlink:href="#spacer" x="27.75" y="15.0" />
        <use xlink:href="#spacer" x="27.75" y="15.75" />
        <use xlink:href="#spacer" x="27.75" y="16.5" />
        <use xlink:href="#spacer" x="27.75" y="17.25" />
        <use xlink:href="#spacer" x="28.5" y=".75" />
        <use xlink:href="#spacer" x="28.5" y="1.5" />
        <use xlink:href="#spacer" x="28.5" y="2.25" />
        <use xlink:href="#spacer" x="28.5" y="3" />
        <use xlink:href="#spacer" x="28.5" y="3.75" />
        <use xlink:href="#spacer" x="28.5" y="4.5" />
        <use xlink:href="#spacer" x="28.5" y="5.25" />
        <use xlink:href="#spacer" x="28.5" y="6.0" />
        <use xlink:href="#spacer" x="28.5" y="6.75" />
        <use xlink:href="#spacer" x="28.5" y="7.5" />
        <use xlink:href="#spacer" x="28.5" y="8.25" />
        <use xlink:href="#spacer" x="28.5" y="9.0" />
        <use xlink:href="#spacer" x="28.5" y="9.75" />
        <use xlink:href="#spacer" x="28.5" y="10.5" />
        <use xlink:href="#spacer" x="28.5" y="11.25" />
        <use xlink:href="#spacer" x="28.5" y="12.0" />
        <use xlink:href="#spacer" x="28.5" y="12.75" />
        <use xlink:href="#spacer" x="28.5" y="13.5" />
        <use xlink:href="#spacer" x="28.5" y="14.25" />
        <use xlink:href="#spacer" x="28.5" y="15.0" />
        <use xlink:href="#spacer" x="28.5" y="15.75" />
        <use xlink:href="#spacer" x="28.5" y="16.5" />
        <use xlink:href="#spacer" x="28.5" y="17.25" />
    </g>
</svg>
